<?xml version="1.0" encoding="UTF-8"?>
<!DOCTYPE svg PUBLIC "-//W3C//DTD SVG 1.1//EN" "http://www.w3.org/Graphics/SVG/1.1/DTD/svg11.dtd">
<svg xmlns="http://www.w3.org/2000/svg" xml:space="preserve" width="512px" height="512px" version="1.1" style="shape-rendering:geometricPrecision; text-rendering:geometricPrecision; image-rendering:optimizeQuality; fill-rule:evenodd; clip-rule:evenodd" viewBox="0 0 512 512" xmlns:xlink="http://www.w3.org/1999/xlink">

<defs>
    <style type="text/css">
    <![CDATA[
        .fil0 {fill:#fff}
    ]]>
    </style>
</defs>
    <path class="fil0" d="M153.63 191.66l0 132.78 33.49 0 0 -53.54 6.03 0c11.68,0 18.3,3.11 28.42,23.55l15.38 29.99 36.61 0 -17.33 -33.49c-8.18,-15.38 -13.24,-21.61 -21.61,-26.28 14.79,-6.62 21.8,-18.3 21.8,-32.9 0,-23.37 -16.16,-40.11 -47.5,-40.11l-55.29 0zm247.73 240.27l-17.79 -77.36c-1.69,-7.36 3.59,-11.48 12.24,-6.49l8.85 5.11 0 0c14.61,-25.25 22.97,-54.56 22.97,-85.83 0,-78.64 -52.89,-144.92 -125.03,-165.23l46.11 -42.9 -30.7 -28.57c105.08,27.45 182.63,123.02 182.63,236.7 0,44.57 -11.93,86.35 -32.75,122.34l8.85 5.1c8.65,5 7.73,11.62 0.51,13.84l-75.89 23.29zm-75.51 -372.7l-58.12 54.07c-5.52,5.15 -11.73,2.64 -11.73,-7.35l0 -10.22c-94.79,0 -171.63,76.84 -171.63,171.63 0,14.58 1.82,28.74 5.24,42.26l-60.21 -18.48 -9.4 40.88c-5.63,-20.6 -8.64,-42.27 -8.64,-64.66 0,-121.66 88.82,-222.56 205.14,-241.45 12.86,-2.09 26.05,-3.19 39.5,-3.19l0 -10.22c0,-9.99 6.2,-12.5 11.73,-7.35l58.12 54.08zm-285.05 251.72l75.89 23.29c7.22,2.22 8.15,8.85 -0.5,13.84l-8.85 5.11c29.68,51.29 85.14,85.8 148.66,85.8 46.6,0 88.85,-18.57 119.78,-48.71l14.12 61.44 39.95 -12.26c-44.34,44.78 -105.85,72.54 -173.85,72.54 -69.88,0 -132.9,-29.3 -177.48,-76.28 -13.19,-13.89 -24.76,-29.33 -34.41,-46.02l0 -0.01 -8.85 5.11c-8.65,5 -13.93,0.88 -12.24,-6.48l17.78 -77.37zm343.53 -33.04c0,-39.72 -25.89,-47.9 -56.07,-47.9l-42.24 0 0 139.01 29.2 0 0 -49.26c8.76,5.26 14.99,6.43 23.56,6.43 30.56,0 45.55,-23.75 45.55,-48.28zm-69.11 -25.51l13.43 0c15.38,0 25.31,9.15 25.31,26.48 0,14.6 -8.96,24.72 -21.61,24.72 -5.26,0 -11.88,-1.55 -17.13,-5.45l0 -45.75zm-128.1 -37.96l14.6 0c14.4,0 20.63,6.62 20.63,17.71 0,13.63 -8.56,17.14 -21.22,17.14l-14.01 0 0 -34.85z"/>
</svg>