<?xml version="1.0" encoding="UTF-8"?>
<!DOCTYPE svg PUBLIC "-//W3C//DTD SVG 1.1//EN" "http://www.w3.org/Graphics/SVG/1.1/DTD/svg11.dtd">
<svg xmlns="http://www.w3.org/2000/svg" xml:space="preserve" width="512px" height="512px" version="1.1" style="shape-rendering:geometricPrecision; text-rendering:geometricPrecision; image-rendering:optimizeQuality; fill-rule:evenodd; clip-rule:evenodd" viewBox="0 0 512 512" xmlns:xlink="http://www.w3.org/1999/xlink">
    <defs>
        <style type="text/css">
        <![CDATA[
            .fil1 {fill:#0087F8}
        ]]>
        </style>
    </defs>
    <path class="fil1" d="M231.26 268.62l67.72 67.72c3.23,3.23 7.69,5.23 12.62,5.23 9.86,0 17.85,-7.99 17.85,-17.85 0,-4.93 -2,-9.39 -5.23,-12.62l-62.49 -62.49 0 -137.65c0,-9.86 -7.99,-17.85 -17.85,-17.85 -9.86,0 -17.85,7.99 -17.85,17.85l0 145.04c0,4.93 2,9.39 5.23,12.62zm12.62 231.26c90.26,0 169.07,-49.04 211.24,-121.92l-59.47 -34.34c-30.3,52.37 -86.92,87.6 -151.77,87.6 -96.77,0 -175.22,-78.45 -175.22,-175.22 0,-96.77 78.45,-175.22 175.22,-175.22 96.77,0 175.22,78.45 175.22,175.22l-14.28 0c-9.27,0 -12.52,6.69 -7.82,12.71l56.43 72.41 56.43 -72.41c4.7,-6.03 1.46,-12.71 -7.81,-12.71l-14.29 0c0,-134.69 -109.19,-243.88 -243.88,-243.88 -134.69,0 -243.88,109.19 -243.88,243.88 0,134.69 109.19,243.88 243.88,243.88zm182.7 -114.96c-41.65,58.99 -109.42,94.66 -182.7,94.66 -123.49,0 -223.58,-100.09 -223.58,-223.58 0,-123.49 100.09,-223.58 223.58,-223.58 123.49,0 223.59,100.09 223.59,223.58l0 20.3 10.75 0 -24.79 31.8 -24.79 -31.8 10.76 0 0 -20.3c0,-107.97 -87.54,-195.52 -195.52,-195.52 -107.97,0 -195.52,87.55 -195.52,195.52 0,107.97 87.55,195.52 195.52,195.52 63.19,0 121.75,-30.37 158.27,-80.7l24.43 14.1z"/>
</svg>