<?xml version="1.0" encoding="UTF-8"?>
<!DOCTYPE svg PUBLIC "-//W3C//DTD SVG 1.1//EN" "http://www.w3.org/Graphics/SVG/1.1/DTD/svg11.dtd">
<!-- Creator: CorelDRAW 2018 (64-Bit Evaluation Version) -->
<svg xmlns="http://www.w3.org/2000/svg" xml:space="preserve" width="1980px" height="600px" version="1.1" style="shape-rendering:geometricPrecision; text-rendering:geometricPrecision; image-rendering:optimizeQuality; fill-rule:evenodd; clip-rule:evenodd"
viewBox="0 0 1980 600"
 xmlns:xlink="http://www.w3.org/1999/xlink">
 <defs>
  <style type="text/css">
   <![CDATA[
    .str0 {stroke:white;stroke-width:11.81;stroke-miterlimit:2.61313}
    .fil1 {fill:none}
    .fil0 {fill:url(#id0)}
   ]]>
  </style>
  <linearGradient id="id0" gradientUnits="objectBoundingBox" x1="0%" y1="50%" x2="100%" y2="50%">
   <stop offset="0" style="stop-opacity:1; stop-color:#0087F8"/>
   <stop offset="1" style="stop-opacity:1; stop-color:#2B6799"/>
  </linearGradient>
 </defs>
 <g id="Layer_x0020_1">
  <metadata id="CorelCorpID_0Corel-Layer"/>
  <path class="fil0" d="M0 340.21l0 259.79 1980 0 0 -519.71c-5.26,0 -10.12,-1.76 -14,-4.73l-169.99 223.16c5.53,4.22 9.1,10.89 9.1,18.38 0,12.77 -10.35,23.11 -23.11,23.11 -12.76,0 -23.11,-10.34 -23.11,-23.11 0,-6.22 2.46,-11.86 6.46,-16.02l-164.7 -158.5c-4.2,4.37 -10.11,7.08 -16.65,7.08 -11.68,0 -21.34,-8.67 -22.89,-19.93l-152.22 21.08c0.15,1.04 0.22,2.1 0.22,3.18 0,12.76 -10.35,23.1 -23.11,23.1 -8.39,0 -15.74,-4.47 -19.79,-11.17l-158.42 95.52c2.11,3.49 3.32,7.57 3.32,11.94 0,12.76 -10.35,23.11 -23.11,23.11 -12.76,0 -23.11,-10.35 -23.11,-23.11 0,-5.78 2.12,-11.06 5.62,-15.11l-163.02 -140.81c-4.24,4.9 -10.5,8 -17.49,8 -10.08,0 -18.66,-6.46 -21.81,-15.46l-154.38 54.09c0.84,2.39 1.3,4.96 1.3,7.64 0,12.76 -10.35,23.11 -23.11,23.11 -12.76,0 -23.11,-10.35 -23.11,-23.11 0,-0.88 0.05,-1.76 0.15,-2.62l-152.08 -17.35c-1.3,11.53 -11.08,20.49 -22.96,20.49 -8.1,0 -15.23,-4.17 -19.36,-10.48l-159.28 103.83c2.37,3.63 3.75,7.96 3.75,12.62 0,12.76 -10.35,23.11 -23.11,23.11 -12.76,0 -23.11,-10.35 -23.11,-23.11 0,-2.26 0.33,-4.44 0.93,-6.51l-153.64 -45.07c-2.81,9.59 -11.68,16.6 -22.18,16.6 -9.11,0 -17,-5.27 -20.76,-12.94l-156.48 76.64c1.5,3.07 2.35,6.52 2.35,10.16 0,12.77 -10.35,23.11 -23.11,23.11z"/>
  <path class="fil0" d="M20.76 306.94c1.5,3.07 2.35,6.52 2.35,10.16 0,12.77 -10.35,23.11 -23.11,23.11l0 -23.11 0 -23.1c9.11,0 17,5.27 20.76,12.94zm199.42 -80.3c-2.81,9.59 -11.68,16.6 -22.18,16.6 -9.11,0 -17,-5.27 -20.76,-12.94 -1.5,-3.07 -2.35,-6.52 -2.35,-10.16 0,-12.77 10.35,-23.11 23.11,-23.11 12.76,0 23.11,10.34 23.11,23.11 0,2.25 -0.33,4.44 -0.93,6.5zm195.18 38.96c2.37,3.63 3.75,7.96 3.75,12.62 0,12.76 -10.35,23.11 -23.11,23.11 -12.76,0 -23.11,-10.35 -23.11,-23.11 0,-2.26 0.33,-4.44 0.93,-6.51 2.81,-9.59 11.68,-16.6 22.18,-16.6 8.11,0 15.24,4.17 19.36,10.49zm201.6 -113.84c-1.3,11.53 -11.08,20.49 -22.96,20.49 -8.1,0 -15.23,-4.17 -19.36,-10.48 -2.37,-3.63 -3.75,-7.97 -3.75,-12.62 0,-12.77 10.35,-23.11 23.11,-23.11 12.76,0 23.11,10.34 23.11,23.11 0,0.88 -0.05,1.75 -0.15,2.61zm196.85 12.33c0.84,2.39 1.3,4.96 1.3,7.64 0,12.76 -10.35,23.11 -23.11,23.11 -12.76,0 -23.11,-10.35 -23.11,-23.11 0,-0.88 0.05,-1.76 0.15,-2.62 1.3,-11.52 11.08,-20.49 22.96,-20.49 10.08,0 18.66,6.46 21.81,15.47zm193.68 -46.63c-4.24,4.9 -10.5,8 -17.49,8 -10.08,0 -18.66,-6.46 -21.81,-15.46 -0.84,-2.39 -1.3,-4.97 -1.3,-7.64 0,-12.77 10.35,-23.11 23.11,-23.11 12.76,0 23.11,10.34 23.11,23.11 0,5.77 -2.12,11.05 -5.62,15.1zm958.51 -41.9c-5.54,-4.22 -9.11,-10.88 -9.11,-18.38 0,-12.76 10.35,-23.11 23.11,-23.11l0 23.11 0 23.11c-5.26,0 -10.12,-1.76 -14,-4.73zm-758.21 185.88c2.11,3.49 3.32,7.57 3.32,11.94 0,12.76 -10.35,23.11 -23.11,23.11 -12.76,0 -23.11,-10.35 -23.11,-23.11 0,-5.78 2.12,-11.06 5.62,-15.11 4.24,-4.9 10.5,-8 17.49,-8 8.4,0 15.75,4.48 19.79,11.17zm201.1 -110.63c0.15,1.04 0.22,2.1 0.22,3.18 0,12.76 -10.35,23.1 -23.11,23.1 -8.39,0 -15.74,-4.47 -19.79,-11.17 -2.1,-3.48 -3.32,-7.57 -3.32,-11.93 0,-12.77 10.35,-23.11 23.11,-23.11 11.69,0 21.35,8.67 22.89,19.93zm191.76 -8.23c-4.2,4.37 -10.11,7.08 -16.65,7.08 -11.68,0 -21.34,-8.67 -22.89,-19.93 -0.14,-1.04 -0.22,-2.1 -0.22,-3.17 0,-12.77 10.35,-23.11 23.11,-23.11 12.76,0 23.11,10.34 23.11,23.11 0,6.22 -2.46,11.86 -6.46,16.02zm181.35 197.63c-12.76,0 -23.11,-10.34 -23.11,-23.11 0,-6.22 2.46,-11.86 6.46,-16.02 4.21,-4.37 10.11,-7.08 16.65,-7.08 5.27,0 10.12,1.76 14.01,4.72 5.53,4.22 9.1,10.89 9.1,18.38 0,12.77 -10.35,23.11 -23.11,23.11z"/>
  <path class="fil1 str0" d="M1966 75.56l-169.99 223.16 169.99 -223.16zm-184 218.44c12.76,0 23.11,10.34 23.11,23.1 0,12.77 -10.35,23.11 -23.11,23.11 -12.76,0 -23.11,-10.34 -23.11,-23.11 0,-6.22 2.46,-11.86 6.46,-16.02l-164.7 -158.5c-4.2,4.37 -10.11,7.08 -16.65,7.08 -11.68,0 -21.34,-8.67 -22.89,-19.93l-152.22 21.08c0.15,1.04 0.22,2.1 0.22,3.18 0,12.76 -10.35,23.1 -23.11,23.1 -8.39,0 -15.74,-4.47 -19.79,-11.17l-158.42 95.52c2.11,3.49 3.32,7.57 3.32,11.94 0,12.76 -10.35,23.11 -23.11,23.11 -12.76,0 -23.11,-10.35 -23.11,-23.11 0,-12.76 10.35,-23.11 23.11,-23.11 8.4,0 15.75,4.48 19.79,11.17l158.42 -95.52c-2.1,-3.48 -3.32,-7.57 -3.32,-11.93 0,-12.77 10.35,-23.11 23.11,-23.11 11.69,0 21.35,8.67 22.89,19.93l152.22 -21.08c-0.14,-1.04 -0.22,-2.1 -0.22,-3.17 0,-12.77 10.35,-23.11 23.11,-23.11 12.76,0 23.11,10.34 23.11,23.11 0,6.22 -2.46,11.86 -6.46,16.02l164.7 158.5c4.21,-4.37 10.11,-7.08 16.65,-7.08zm-611.49 -35.73l-163.02 -140.81 163.02 140.81zm-202.32 -148.27l-154.38 54.09c0.84,2.39 1.3,4.96 1.3,7.64 0,12.76 -10.35,23.11 -23.11,23.11 -12.76,0 -23.11,-10.35 -23.11,-23.11 0,-0.88 0.05,-1.76 0.15,-2.62l-152.08 -17.35c-1.3,11.53 -11.08,20.49 -22.96,20.49 -12.76,0 -23.11,-10.34 -23.11,-23.1 0,-12.77 10.35,-23.11 23.11,-23.11 12.76,0 23.11,10.34 23.11,23.11 0,0.88 -0.05,1.75 -0.15,2.61l152.08 17.35c1.3,-11.52 11.08,-20.49 22.96,-20.49 10.08,0 18.66,6.46 21.81,15.47l154.38 -54.09c-0.84,-2.39 -1.3,-4.97 -1.3,-7.64 0,-12.77 10.35,-23.11 23.11,-23.11 12.76,0 23.11,10.34 23.11,23.11 0,12.76 -10.35,23.1 -23.11,23.1 -10.08,0 -18.66,-6.46 -21.81,-15.46zm-393.55 51.77l-159.28 103.83 159.28 -103.83zm-200.82 109.94l-153.64 -45.07c-2.81,9.59 -11.68,16.6 -22.18,16.6 -12.76,0 -23.11,-10.34 -23.11,-23.1 0,-12.77 10.35,-23.11 23.11,-23.11 12.76,0 23.11,10.34 23.11,23.11 0,2.25 -0.33,4.44 -0.93,6.5l153.64 45.07c2.81,-9.59 11.68,-16.6 22.18,-16.6 12.76,0 23.11,10.35 23.11,23.11 0,12.76 -10.35,23.11 -23.11,23.11 -12.76,0 -23.11,-10.35 -23.11,-23.11 0,-2.26 0.33,-4.44 0.93,-6.51zm-196.58 -41.41l-156.48 76.64 156.48 -76.64zm1802.76 -173.12l0 23.11c-12.76,0 -23.11,-10.35 -23.11,-23.11 0,-12.76 10.35,-23.11 23.11,-23.11l0 23.11zm-1980 259.92l0 -23.1c12.76,0 23.11,10.34 23.11,23.1 0,12.77 -10.35,23.11 -23.11,23.11l0 -23.11z"/>
 </g>
</svg>
