<?xml version="1.0" encoding="UTF-8"?>
<!DOCTYPE svg PUBLIC "-//W3C//DTD SVG 1.1//EN" "http://www.w3.org/Graphics/SVG/1.1/DTD/svg11.dtd">
<svg xmlns="http://www.w3.org/2000/svg" xml:space="preserve" width="512px" height="512px" version="1.1" style="shape-rendering:geometricPrecision; text-rendering:geometricPrecision; image-rendering:optimizeQuality; fill-rule:evenodd; clip-rule:evenodd" viewBox="0 0 512 512" xmlns:xlink="http://www.w3.org/1999/xlink">

<defs>
    <style type="text/css">
    <![CDATA[
        .fil0 {fill:#fff}
    ]]>
    </style>
</defs>
    <path class="fil0" d="M273.44 152.67l0 295.4 70.67 0c5.72,0 16.31,11.17 16.31,16.9l19.41 0c11.37,0 20.67,9.3 20.67,20.67l-289 0.16c0,-11.46 9.17,-20.83 20.67,-20.83l19.41 0c0,-5.73 10.59,-16.9 16.31,-16.9l70.67 0 0 -295.4 -6.45 0c-10.53,0 -19.65,-6.33 -23.75,-15.37l-108.31 0 34.63 163.7 12.64 0c0,17.47 -29.53,31.63 -65.96,31.63 -36.43,0 -65.96,-14.16 -65.96,-31.63l12.64 0 34.63 -163.7 -51.98 0c-5.88,0 -10.69,-4.81 -10.69,-10.69l0 0c0,-5.88 4.81,-10.69 10.69,-10.69l197.67 0c3.25,-7.17 9.67,-12.64 17.44,-14.59 -8.28,-7.94 -13.44,-19.11 -13.44,-31.49 0,-24.1 19.54,-43.64 43.64,-43.64 24.1,0 43.64,19.54 43.64,43.64 0,12.38 -5.16,23.55 -13.44,31.49 7.77,1.95 14.19,7.42 17.44,14.59l197.67 0c5.88,0 10.69,4.81 10.69,10.69l0 0c0,5.88 -4.81,10.69 -10.69,10.69l-51.98 0 34.63 163.7 12.64 0c0,17.47 -29.53,31.63 -65.96,31.63 -36.43,0 -65.96,-14.16 -65.96,-31.63l12.64 0 34.63 -163.7 -108.31 0c-4.1,9.04 -13.22,15.37 -23.75,15.37l-6.45 0zm157.2 -15.37l-9.35 44.18 -25.28 119.52 34.63 0 34.63 0 -25.29 -119.52 -9.34 -44.18zm-349.28 0l-9.34 44.18 -25.29 119.52 34.63 0 34.63 0 -25.28 -119.52 -9.35 -44.18zm174.64 -92.1c13.61,0 24.64,11.03 24.64,24.64 0,13.61 -11.03,24.64 -24.64,24.64 -13.61,0 -24.64,-11.03 -24.64,-24.64 0,-13.61 11.03,-24.64 24.64,-24.64z"/>
</svg>