<?xml version="1.0" encoding="UTF-8"?>
<!DOCTYPE svg PUBLIC "-//W3C//DTD SVG 1.1//EN" "http://www.w3.org/Graphics/SVG/1.1/DTD/svg11.dtd">
<svg xmlns="http://www.w3.org/2000/svg" xml:space="preserve" width="512px" height="512px" version="1.1" style="shape-rendering:geometricPrecision; text-rendering:geometricPrecision; image-rendering:optimizeQuality; fill-rule:evenodd; clip-rule:evenodd" viewBox="0 0 512 512" xmlns:xlink="http://www.w3.org/1999/xlink">

<defs>
    <style type="text/css">
    <![CDATA[
        .fil0 {fill:#fff}
    ]]>
    </style>
</defs>
    <path class="fil0" d="M164.24 357.31l259.98 0 48.16 -179.76c2.16,-8.78 10.08,-15.29 19.52,-15.29 11.1,0 20.1,9 20.1,20.1 0,1.95 -0.28,3.83 -0.79,5.61l-52.07 194.3c-2.17,8.75 -10.08,15.24 -19.5,15.24l-275.4 0 -13.62 50.85 8.27 0c7.19,-13.45 21.36,-22.61 37.68,-22.61 16.31,0 30.49,9.16 37.68,22.61l128.12 0c7.19,-13.45 21.36,-22.61 37.68,-22.61 16.32,0 30.49,9.16 37.68,22.61l26.3 0c11.1,0 20.1,8.99 20.1,20.09 0,11.11 -9,20.1 -20.1,20.1l-26.3 0c-7.19,13.45 -21.36,22.61 -37.68,22.61 -16.32,0 -30.49,-9.16 -37.68,-22.61l-128.12 0c-7.19,13.45 -21.37,22.61 -37.68,22.61 -16.32,0 -30.49,-9.16 -37.68,-22.61l-34.47 0c-11.1,0 -20.1,-8.99 -20.1,-20.1 0,-1.95 0.28,-3.84 0.8,-5.62l22.89 -85.42 -65.55 -244.65 -42.36 0c-11.1,0 -20.1,-9 -20.1,-20.1 0,-11.1 9,-20.09 20.1,-20.09l57.78 0 0 0c9.43,0 17.34,6.49 19.51,15.25l66.85 249.49zm39.61 -235.86l21.09 0 0 138.57 138.57 0 0 -138.57 21.09 0c19.9,0 25.42,-10.94 15.14,-20.67l-105.51 -99.94 -105.52 99.94c-10.27,9.73 -4.76,20.67 15.14,20.67zm196.2 322.22c13.69,0 24.79,11.09 24.79,24.78 0,13.7 -11.1,24.79 -24.79,24.79 -13.69,0 -24.79,-11.09 -24.79,-24.79 0,-13.69 11.1,-24.78 24.79,-24.78zm-203.48 0c13.69,0 24.79,11.09 24.79,24.78 0,13.7 -11.1,24.79 -24.79,24.79 -13.69,0 -24.79,-11.09 -24.79,-24.79 0,-13.69 11.1,-24.78 24.79,-24.78z"/>
</svg>