<?xml version="1.0" encoding="UTF-8"?>
<!DOCTYPE svg PUBLIC "-//W3C//DTD SVG 1.1//EN" "http://www.w3.org/Graphics/SVG/1.1/DTD/svg11.dtd">
<svg xmlns="http://www.w3.org/2000/svg" xml:space="preserve" width="512px" height="512px" version="1.1" style="shape-rendering:geometricPrecision; text-rendering:geometricPrecision; image-rendering:optimizeQuality; fill-rule:evenodd; clip-rule:evenodd" viewBox="0 0 512 512" xmlns:xlink="http://www.w3.org/1999/xlink">
    <defs>
        <style type="text/css">
        <![CDATA[
            .fil1 {fill:#0087F8}
        ]]>
        </style>
    </defs>
    <path class="fil1" d="M149.6 198.45c11.72,0 22.71,-3.13 32.18,-8.59 -0.93,-4.73 -1.42,-9.62 -1.42,-14.63 0,-1.08 0.03,-2.16 0.07,-3.23 -4.54,3.68 -9.76,6.57 -15.44,8.46l0 0c-2.59,0.86 -5.24,1.49 -7.93,1.9 -0.79,0.12 -1.59,0.22 -2.39,0.31l-0.06 0 -0.1 0.01c-0.35,0.04 -0.71,0.07 -1.06,0.1l-0.16 0.01c-0.36,0.03 -0.73,0.05 -1.09,0.07l-0.14 0c-0.36,0.02 -0.73,0.04 -1.1,0.05l-0.17 0c-0.37,0.01 -0.74,0.01 -1.11,0.01l-0.08 0 0 0c-0.42,0 -0.84,0 -1.26,-0.01l0 0c-0.42,-0.01 -0.84,-0.03 -1.26,-0.05l0 0c-0.41,-0.02 -0.83,-0.05 -1.25,-0.08l0 0c-0.41,-0.03 -0.82,-0.07 -1.23,-0.11l-0.01 0c-0.41,-0.04 -0.82,-0.09 -1.22,-0.14l0 0c-0.41,-0.05 -0.82,-0.11 -1.22,-0.17l-0.01 0c-0.4,-0.06 -0.8,-0.13 -1.2,-0.2l-0.01 0c-0.4,-0.07 -0.8,-0.15 -1.2,-0.23l0 0c-0.39,-0.08 -0.79,-0.17 -1.19,-0.26l0 0c-0.39,-0.09 -0.78,-0.19 -1.17,-0.29l-0.01 0c-0.39,-0.1 -0.77,-0.2 -1.16,-0.31l0 0c-0.39,-0.11 -0.78,-0.23 -1.16,-0.35l0 0c-0.38,-0.11 -0.76,-0.24 -1.14,-0.37l0 0c-0.38,-0.13 -0.76,-0.26 -1.13,-0.4 -0.75,-0.27 -1.49,-0.56 -2.23,-0.87l0 0c-12.81,-5.42 -22.84,-16.14 -27.33,-29.41l0 0c-0.25,-0.76 -0.49,-1.53 -0.71,-2.3l0 0c-0.33,-1.16 -0.62,-2.34 -0.86,-3.54l0 0c-0.17,-0.79 -0.31,-1.6 -0.43,-2.41l0 0c-0.07,-0.4 -0.12,-0.81 -0.17,-1.22 -0.06,-0.41 -0.1,-0.82 -0.15,-1.23 -0.04,-0.41 -0.07,-0.82 -0.11,-1.24l0 0c-0.03,-0.41 -0.05,-0.83 -0.08,-1.25 -0.02,-0.41 -0.03,-0.83 -0.04,-1.25l0 0c-0.01,-0.42 -0.02,-0.84 -0.02,-1.27l0 0c0,-0.42 0.01,-0.84 0.02,-1.26l0 0c0.01,-0.42 0.02,-0.84 0.04,-1.25l0 -0.01c0.03,-0.41 0.05,-0.83 0.08,-1.24l0 0c0.04,-0.42 0.07,-0.83 0.11,-1.24l0 0c0.04,-0.41 0.09,-0.82 0.15,-1.23l0 0c0.05,-0.41 0.1,-0.82 0.17,-1.22l0 0c0.12,-0.81 0.26,-1.62 0.43,-2.41l0 0c3.5,-17.14 15.95,-31.01 32.26,-36.52l0 0c0.76,-0.26 1.52,-0.5 2.3,-0.72l0 0c1.16,-0.33 2.34,-0.62 3.53,-0.86l0 0c0.8,-0.16 1.6,-0.31 2.41,-0.43l0.01 0c0.4,-0.06 0.81,-0.12 1.22,-0.17l0 0c0.4,-0.05 0.81,-0.1 1.22,-0.14l0.01 0c0.41,-0.04 0.82,-0.08 1.23,-0.11 0.42,-0.03 0.84,-0.06 1.25,-0.08l0 0c0.42,-0.02 0.84,-0.04 1.26,-0.05 0.42,-0.01 0.84,-0.02 1.26,-0.02 0.37,0 0.73,0.01 1.09,0.02l0.36 0.01c0.29,0.01 0.57,0.02 0.86,0.03l0.5 0.03 0.68 0.04 0.59 0.04 0.35 0.03c0.42,0.04 0.83,0.09 1.25,0.13l0.19 0.02c8.45,1.01 16.24,4.18 22.81,8.93l0.4 0.29 0.36 0.27c0.25,0.19 0.5,0.38 0.75,0.58l0.04 0.03 0.04 0.03c0.29,0.23 0.58,0.46 0.87,0.7l0.01 0.01c4.63,3.81 8.58,8.48 11.57,13.82l-0.01 0.01c2.85,5.06 4.82,10.68 5.71,16.65 3.85,-4.59 8.22,-8.71 13.04,-12.27 -8.29,-26.05 -32.67,-44.92 -61.46,-44.92 -35.61,0 -64.48,28.87 -64.48,64.48 0,35.62 28.87,64.49 64.48,64.49zm264.32 4.28l-49.23 69.66c3.6,3.96 7.03,8.09 10.28,12.36l0 -0.01 9.35 -13.23 0 0 34.56 -48.89c0.79,0.45 1.57,0.91 2.35,1.37 0.78,0.47 1.55,0.94 2.31,1.43 0.77,0.48 1.53,0.97 2.28,1.47 0.76,0.49 1.51,1 2.25,1.51 0.74,0.51 1.47,1.03 2.2,1.56 0.73,0.52 1.46,1.06 2.18,1.6 0.71,0.54 1.43,1.09 2.13,1.64l0 0c0.71,0.56 1.41,1.12 2.1,1.69 0.7,0.56 1.38,1.14 2.07,1.72 0.68,0.58 1.35,1.17 2.02,1.77 0.67,0.59 1.34,1.19 1.99,1.8 0.66,0.61 1.31,1.22 1.96,1.84l0 0c0.64,0.63 1.28,1.25 1.92,1.88 0.63,0.64 1.26,1.28 1.88,1.92 0.62,0.64 1.24,1.29 1.85,1.95l0 0c0.61,0.66 1.21,1.32 1.81,1.99 0.6,0.67 1.19,1.34 1.77,2.02l0 0c0.59,0.68 1.17,1.36 1.74,2.05l0 0c0.58,0.69 1.14,1.39 1.7,2.09 0.56,0.7 1.12,1.4 1.67,2.11 0.55,0.71 1.09,1.43 1.63,2.15 0.54,0.72 1.07,1.45 1.59,2.18l0 0c0.53,0.73 1.05,1.46 1.56,2.2l0 0c1.03,1.48 2.03,2.98 3.01,4.5 0.49,0.76 0.97,1.52 1.45,2.29 0.48,0.76 0.95,1.54 1.41,2.31 0.47,0.78 0.92,1.55 1.38,2.34l0 0c0.45,0.78 0.9,1.57 1.34,2.36 0.44,0.79 0.87,1.59 1.3,2.38 0.43,0.8 0.85,1.6 1.27,2.41 0.42,0.81 0.83,1.61 1.23,2.43l0 0c0.41,0.81 0.8,1.63 1.2,2.45l0 0c0.39,0.82 0.78,1.64 1.16,2.46l0 0c0.38,0.83 0.75,1.66 1.12,2.49 0.37,0.83 0.73,1.67 1.09,2.5l0 0.01c0.35,0.83 0.7,1.67 1.05,2.52l0 0c0.34,0.84 0.68,1.69 1.01,2.53l0 0c0.33,0.85 0.66,1.7 0.98,2.56 0.32,0.85 0.63,1.71 0.94,2.56l0 0.01c0.31,0.85 0.61,1.71 0.9,2.58l0 0c0.3,0.86 0.59,1.72 0.87,2.59 0.29,0.87 0.56,1.74 0.83,2.61 0.28,0.87 0.54,1.74 0.8,2.61 0.26,0.88 0.51,1.75 0.76,2.63l0 0c0.25,0.88 0.49,1.76 0.72,2.64l0 0c0.24,0.88 0.47,1.76 0.69,2.65l0 0c0.22,0.88 0.44,1.76 0.65,2.65 0.21,0.88 0.41,1.77 0.61,2.66 0.2,0.89 0.39,1.78 0.58,2.67l0 0c0.19,0.89 0.37,1.78 0.54,2.67l0 0c0.18,0.89 0.34,1.78 0.51,2.67l0 0c0.16,0.9 0.31,1.79 0.46,2.68l0 0c0.15,0.9 0.3,1.79 0.44,2.69 0.13,0.89 0.27,1.79 0.39,2.68 0.13,0.9 0.25,1.79 0.36,2.69 0.11,0.89 0.22,1.79 0.32,2.68l0 0c0.1,0.9 0.2,1.79 0.29,2.69 0.09,0.89 0.17,1.79 0.25,2.68 0.07,0.9 0.14,1.79 0.21,2.68 0.06,0.9 0.12,1.79 0.18,2.68l0 0c0.05,0.89 0.1,1.79 0.14,2.68 0.04,0.89 0.07,1.78 0.1,2.67 0.03,0.89 0.05,1.77 0.06,2.66l-0.23 0.14 -0.03 0.02 -0.08 0.04 -0.2 0.12 -0.16 0.08 -0.13 0.07 -0.06 0.03 -0.19 0.1 -0.05 0.03 -0.15 0.07 -0.16 0.09 -0.04 0.01 -0.03 0.02 -0.26 0.12 -0.12 0.06 -0.21 0.1 -0.01 0 -0.21 0.1 -0.12 0.06 -0.1 0.04 -0.23 0.1 -0.02 0.01 -0.21 0.09 -0.15 0.07 -0.08 0.03 -0.23 0.1 -0.06 0.02 -0.18 0.07 -0.19 0.08 -0.05 0.02 -0.24 0.1 -0.09 0.04 -0.16 0.06 -0.23 0.09 -0.02 0 -0.25 0.1 -0.26 0.1 -0.26 0.09 -0.01 0.01 -0.25 0.09 -0.16 0.06 -0.1 0.03 -0.26 0.09 -0.05 0.02 -0.22 0.08 -0.2 0.07 -0.07 0.02 -0.27 0.1 -0.09 0.03 -0.18 0.06 -0.24 0.08 -0.03 0.01 -0.28 0.09 -0.12 0.04 -0.16 0.05 -0.27 0.09 -0.01 0.01 -0.27 0.08 -0.17 0.06 -0.11 0.03 -0.28 0.09 -0.05 0.02 -0.24 0.07 -0.2 0.06 -0.08 0.03 -0.28 0.09 -0.08 0.02 -0.21 0.06 -0.24 0.08 -0.04 0.01 -0.29 0.08 -0.12 0.04 -0.16 0.05 -0.28 0.08 -0.01 0 -0.28 0.08 -0.16 0.05 -0.13 0.04 -0.28 0.08 -0.04 0.01 -0.25 0.07 -0.19 0.06 -0.09 0.02 -0.29 0.08 -0.07 0.02 -0.21 0.06 -0.23 0.06 -0.05 0.02 -0.39 0.1 -0.18 0.05 -0.26 0.07 -0.02 0.01 -0.27 0.07 -0.15 0.04 -0.13 0.04 -0.28 0.07 -0.02 0.01 -0.25 0.06 -0.18 0.05 -0.1 0.02 -0.27 0.07 -0.06 0.02c-3.24,0.84 -6.11,1.48 -7.77,1.83 -11.89,2.47 -24.24,4.14 -36.55,5.34l-0.17 0.02 -0.16 0.02c-6.84,0.69 -13.73,1.25 -20.63,1.71 0.67,5.11 1.17,10.24 1.49,15.39 53.08,-3.49 95.71,-12.35 95.71,-26.58 0,-78.18 -40.84,-144.79 -98.08,-170.24zm-83.7 -12.87c9.47,5.46 20.46,8.59 32.18,8.59 35.61,0 64.48,-28.87 64.48,-64.49 0,-35.61 -28.87,-64.48 -64.48,-64.48 -28.79,0 -53.17,18.87 -61.46,44.92 4.82,3.56 9.19,7.68 13.04,12.27 0.89,-5.97 2.86,-11.59 5.71,-16.65l-0.01 -0.01c2.99,-5.34 6.94,-10.01 11.57,-13.82l0.01 -0.01c0.29,-0.24 0.58,-0.47 0.87,-0.7l0.04 -0.03 0.04 -0.03c0.25,-0.2 0.5,-0.39 0.75,-0.58l0.36 -0.27 0.4 -0.29c6.56,-4.75 14.36,-7.92 22.81,-8.93l0.19 -0.02c0.42,-0.04 0.83,-0.09 1.25,-0.13l0.35 -0.03 0.59 -0.04 0.68 -0.04 0.5 -0.03c0.29,-0.01 0.57,-0.02 0.86,-0.03l0.36 -0.01c0.36,-0.01 0.72,-0.02 1.09,-0.02 0.42,0 0.84,0.01 1.26,0.02 0.42,0.01 0.84,0.03 1.26,0.05l0 0c0.41,0.02 0.83,0.05 1.25,0.08 0.41,0.03 0.82,0.06 1.23,0.11l0.01 0c0.41,0.04 0.82,0.09 1.22,0.14l0 0c0.41,0.05 0.82,0.11 1.22,0.17l0.01 0c0.81,0.12 1.61,0.27 2.41,0.43l0 0c1.19,0.24 2.37,0.53 3.53,0.86l0 0c0.78,0.22 1.54,0.46 2.3,0.72l0 0c16.31,5.51 28.76,19.38 32.26,36.52l0 0c0.17,0.79 0.31,1.6 0.43,2.41l0 0c0.07,0.4 0.12,0.81 0.17,1.22l0 0c0.06,0.41 0.11,0.82 0.15,1.23l0 0c0.04,0.41 0.07,0.82 0.11,1.24l0 0c0.03,0.41 0.05,0.83 0.08,1.24l0 0.01c0.02,0.41 0.03,0.83 0.04,1.25l0 0c0.01,0.42 0.02,0.84 0.02,1.26l0 0c0,0.43 -0.01,0.85 -0.02,1.27l0 0c-0.01,0.42 -0.02,0.84 -0.04,1.25 -0.03,0.42 -0.05,0.84 -0.08,1.25l0 0c-0.04,0.42 -0.07,0.83 -0.11,1.24 -0.04,0.41 -0.09,0.82 -0.15,1.23 -0.05,0.41 -0.1,0.82 -0.17,1.22l0 0c-0.12,0.81 -0.26,1.62 -0.43,2.41l0 0c-0.24,1.2 -0.53,2.38 -0.86,3.54l0 0c-0.22,0.77 -0.46,1.54 -0.71,2.3l0 0c-4.49,13.27 -14.52,23.99 -27.33,29.41l0 0c-0.74,0.31 -1.48,0.6 -2.23,0.87 -0.37,0.14 -0.75,0.27 -1.13,0.4l0 0c-0.38,0.13 -0.76,0.25 -1.14,0.37l0 0c-0.39,0.12 -0.77,0.24 -1.16,0.35l0 0c-0.39,0.11 -0.77,0.21 -1.16,0.31l-0.01 0c-0.39,0.1 -0.78,0.2 -1.17,0.29l0 0c-0.4,0.09 -0.8,0.18 -1.19,0.26l0 0c-0.4,0.08 -0.8,0.16 -1.2,0.23l-0.01 0c-0.4,0.07 -0.8,0.14 -1.2,0.2l-0.01 0c-0.4,0.06 -0.81,0.12 -1.22,0.17l0 0c-0.4,0.05 -0.81,0.1 -1.22,0.14l-0.01 0c-0.41,0.04 -0.82,0.08 -1.23,0.11l0 0c-0.42,0.03 -0.84,0.06 -1.25,0.08l0 0c-0.42,0.02 -0.84,0.04 -1.26,0.05l0 0c-0.42,0.01 -0.84,0.01 -1.26,0.01l0 0 -0.08 0c-0.37,0 -0.74,0 -1.11,-0.01l-0.17 0c-0.37,-0.01 -0.74,-0.03 -1.1,-0.05l-0.14 0c-0.36,-0.02 -0.73,-0.05 -1.09,-0.07l-0.16 -0.01c-0.35,-0.03 -0.71,-0.06 -1.06,-0.1l-0.1 -0.01 -0.06 0c-0.8,-0.09 -1.6,-0.19 -2.39,-0.31 -2.69,-0.41 -5.35,-1.04 -7.93,-1.9l0 0c-5.68,-1.88 -10.9,-4.78 -15.44,-8.46 0.04,1.07 0.07,2.15 0.07,3.23 0,5.01 -0.49,9.9 -1.42,14.63zm-138.7 -14.63c0,35.62 28.87,64.49 64.48,64.49 35.61,0 64.48,-28.87 64.48,-64.49 0,-35.61 -28.87,-64.48 -64.48,-64.48 -35.61,0 -64.48,28.87 -64.48,64.48zm64.48 48.96c-27.04,0 -48.96,-21.92 -48.96,-48.96 0,-27.04 21.92,-48.96 48.96,-48.96 27.04,0 48.96,21.92 48.96,48.96 0,27.04 -21.92,48.96 -48.96,48.96zm-51.52 19.81c-24.1,10.71 -45.29,28.72 -61.75,51.82l-0.23 0.32c-0.53,0.76 -1.06,1.51 -1.59,2.28l-0.19 0.28c-0.52,0.76 -1.04,1.53 -1.55,2.31l-0.21 0.31c-0.54,0.83 -1.08,1.66 -1.62,2.5l-0.04 0.08c-0.56,0.88 -1.12,1.77 -1.66,2.66l-0.05 0.09c-0.53,0.87 -1.05,1.74 -1.57,2.62l-0.12 0.2c-0.49,0.84 -0.98,1.69 -1.46,2.54l-0.16 0.29c-0.47,0.83 -0.94,1.68 -1.39,2.52l-0.15 0.27c-0.47,0.87 -0.93,1.74 -1.39,2.61l-0.11 0.23c-0.48,0.91 -0.94,1.83 -1.4,2.75l-0.04 0.07 -0.02 0.05c-0.48,0.95 -0.94,1.91 -1.4,2.87l-0.03 0.07c-0.45,0.94 -0.89,1.89 -1.33,2.84l-0.1 0.23c-0.42,0.91 -0.82,1.82 -1.22,2.74l-0.13 0.28c-0.38,0.89 -0.77,1.79 -1.14,2.69l-0.16 0.37c-0.39,0.96 -0.78,1.92 -1.17,2.88l-0.02 0.06c-0.41,1.02 -0.8,2.05 -1.19,3.08l-0.01 0.01 -0.01 0.02c-0.38,1.01 -0.75,2.03 -1.12,3.05l-0.07 0.22c-0.34,0.95 -0.68,1.91 -1.01,2.87l-0.12 0.37c-0.32,0.92 -0.62,1.85 -0.92,2.78l-0.14 0.42c-0.3,0.93 -0.59,1.88 -0.88,2.82l-0.11 0.37c-0.3,1 -0.6,2.01 -0.89,3.02l-0.04 0.13c-0.3,1.05 -0.59,2.1 -0.87,3.16l-0.03 0.09 -0.03 0.13c-0.27,1.01 -0.54,2.04 -0.79,3.06l-0.09 0.35c-0.24,0.97 -0.48,1.94 -0.7,2.91l-0.12 0.5c-0.22,0.95 -0.43,1.91 -0.64,2.87l-0.1 0.43c-0.21,0.98 -0.41,1.97 -0.61,2.96l-0.07 0.37c-0.21,1.05 -0.41,2.11 -0.61,3.18l-0.02 0.11 -0.02 0.1c-0.19,1.08 -0.38,2.16 -0.56,3.25l-0.04 0.29c-0.18,1.04 -0.34,2.09 -0.5,3.14l-0.05 0.38c-1.53,10.38 -2.32,21.06 -2.32,31.97 0,37.7 299.2,37.7 299.2,0 0,-10.91 -0.79,-21.59 -2.32,-31.97l-0.05 -0.38c-0.16,-1.05 -0.33,-2.1 -0.5,-3.14l-0.04 -0.29c-0.18,-1.09 -0.37,-2.17 -0.56,-3.25l-0.02 -0.1 -0.02 -0.11c-0.2,-1.07 -0.4,-2.13 -0.61,-3.18l-0.07 -0.37c-0.2,-0.99 -0.4,-1.98 -0.61,-2.96l-0.1 -0.43c-0.21,-0.96 -0.42,-1.92 -0.64,-2.87l-0.12 -0.5c-0.22,-0.97 -0.46,-1.94 -0.7,-2.91l-0.09 -0.35c-0.25,-1.02 -0.52,-2.05 -0.79,-3.06l-0.03 -0.13 -0.03 -0.09c-0.28,-1.06 -0.57,-2.11 -0.87,-3.16l-0.04 -0.13c-0.29,-1.01 -0.59,-2.02 -0.89,-3.02l-0.11 -0.37c-0.29,-0.94 -0.58,-1.88 -0.88,-2.82l-0.14 -0.42c-0.3,-0.93 -0.6,-1.86 -0.92,-2.78l-0.12 -0.37c-0.33,-0.96 -0.67,-1.92 -1.01,-2.87l-0.07 -0.22c-0.37,-1.02 -0.74,-2.04 -1.12,-3.05l-0.01 -0.02 -0.01 -0.01c-0.39,-1.03 -0.79,-2.06 -1.19,-3.08l-0.02 -0.06c-0.39,-0.96 -0.78,-1.92 -1.17,-2.88l-0.16 -0.37c-0.37,-0.9 -0.76,-1.8 -1.14,-2.69l-0.13 -0.28c-0.4,-0.92 -0.81,-1.83 -1.22,-2.74l-0.1 -0.23c-0.44,-0.95 -0.88,-1.9 -1.33,-2.84l-0.03 -0.07c-0.46,-0.96 -0.92,-1.92 -1.4,-2.87l-0.02 -0.05 -0.04 -0.07c-0.46,-0.92 -0.92,-1.84 -1.4,-2.75l-0.11 -0.23c-0.46,-0.87 -0.92,-1.74 -1.39,-2.61l-0.15 -0.27c-0.45,-0.84 -0.92,-1.69 -1.39,-2.52l-0.16 -0.29c-0.48,-0.85 -0.97,-1.7 -1.46,-2.54l-0.12 -0.2c-0.52,-0.88 -1.04,-1.75 -1.57,-2.62l-0.05 -0.09c-0.54,-0.89 -1.1,-1.78 -1.66,-2.66l-0.04 -0.08c-0.54,-0.84 -1.08,-1.68 -1.62,-2.5l-0.21 -0.31c-0.51,-0.78 -1.03,-1.55 -1.55,-2.31l-0.19 -0.28c-0.53,-0.77 -1.06,-1.52 -1.59,-2.28l-0.23 -0.32c-16.46,-23.1 -37.65,-41.11 -61.75,-51.82l-51.52 72.9 -51.52 -72.9zm-82.53 166.77c1.02,-56.78 27.01,-118.01 77.57,-146.88l56.48 79.91 56.48 -79.91c50.56,28.87 76.55,90.1 77.57,146.88 -8.53,5.39 -35.89,9.81 -43.62,10.87 -29.6,4.09 -60.57,5.36 -90.43,5.36 -29.86,0 -60.83,-1.27 -90.43,-5.36 -7.73,-1.06 -35.09,-5.48 -43.62,-10.87zm25.36 -138.38l-49.23 -69.66c-57.24,25.45 -98.08,92.06 -98.08,170.24 0,14.23 42.63,23.09 95.71,26.58 0.32,-5.15 0.82,-10.28 1.49,-15.39l0 0 0 0c-6.96,-0.46 -13.9,-1.03 -20.79,-1.73l-0.16 -0.02c-12.32,-1.2 -24.67,-2.87 -36.56,-5.34 -1.66,-0.35 -4.53,-0.99 -7.77,-1.83l-0.06 -0.02 -0.27 -0.07 -0.1 -0.02 -0.18 -0.05 -0.25 -0.06 -0.02 -0.01 -0.28 -0.07 -0.13 -0.04 -0.15 -0.04 -0.27 -0.07 -0.02 -0.01 -0.26 -0.07 -0.18 -0.05 -0.39 -0.1 -0.05 -0.02 -0.23 -0.06 -0.21 -0.06 -0.07 -0.02 -0.29 -0.08 -0.09 -0.02 -0.19 -0.06 -0.25 -0.07 -0.04 -0.01 -0.28 -0.08 -0.13 -0.04 -0.16 -0.05 -0.28 -0.08 -0.01 0 -0.28 -0.08 -0.16 -0.05 -0.12 -0.04 -0.29 -0.08 -0.04 -0.01 -0.24 -0.08 -0.21 -0.06 -0.08 -0.02 -0.28 -0.09 -0.08 -0.03 -0.2 -0.06 -0.24 -0.07 -0.05 -0.02 -0.28 -0.09 -0.11 -0.03 -0.17 -0.06 -0.27 -0.08 -0.01 -0.01 -0.27 -0.09 -0.16 -0.05 -0.12 -0.04 -0.28 -0.09 -0.03 -0.01 -0.24 -0.08 -0.18 -0.06 -0.09 -0.03 -0.27 -0.1 -0.07 -0.02 -0.2 -0.07 -0.22 -0.08 -0.05 -0.02 -0.26 -0.09 -0.1 -0.03 -0.16 -0.06 -0.25 -0.09 -0.01 -0.01 -0.26 -0.09 -0.26 -0.1 -0.25 -0.1 -0.02 0 -0.23 -0.09 -0.16 -0.06 -0.09 -0.04 -0.24 -0.1 -0.05 -0.02 -0.19 -0.08 -0.18 -0.07 -0.06 -0.02 -0.23 -0.1 -0.08 -0.03 -0.15 -0.07 -0.21 -0.09 -0.02 -0.01 -0.23 -0.1 -0.1 -0.04 -0.12 -0.06 -0.21 -0.1 -0.01 0 -0.21 -0.1 -0.12 -0.06 -0.26 -0.12 -0.03 -0.02 -0.04 -0.01 -0.16 -0.09 -0.15 -0.07 -0.05 -0.03 -0.19 -0.1 -0.06 -0.03 -0.13 -0.07 -0.16 -0.08 -0.2 -0.12 -0.08 -0.04 -0.03 -0.02 -0.23 -0.14c0.01,-0.89 0.03,-1.77 0.06,-2.66 0.03,-0.89 0.06,-1.78 0.1,-2.67 0.04,-0.89 0.09,-1.79 0.14,-2.68l0 0c0.06,-0.89 0.12,-1.78 0.18,-2.68 0.07,-0.89 0.14,-1.78 0.21,-2.68 0.08,-0.89 0.16,-1.79 0.25,-2.68 0.09,-0.9 0.19,-1.79 0.29,-2.69l0 0c0.1,-0.89 0.21,-1.79 0.32,-2.68 0.11,-0.9 0.23,-1.79 0.36,-2.69 0.12,-0.89 0.26,-1.79 0.39,-2.68 0.14,-0.9 0.29,-1.79 0.44,-2.69l0 0c0.15,-0.89 0.3,-1.78 0.46,-2.68l0 0c0.17,-0.89 0.33,-1.78 0.51,-2.67l0 0c0.17,-0.89 0.35,-1.78 0.54,-2.67l0 0c0.19,-0.89 0.38,-1.78 0.58,-2.67 0.2,-0.89 0.4,-1.78 0.61,-2.66 0.21,-0.89 0.43,-1.77 0.65,-2.65l0 0c0.22,-0.89 0.45,-1.77 0.69,-2.65l0 0c0.23,-0.88 0.47,-1.76 0.72,-2.64l0 0c0.25,-0.88 0.5,-1.75 0.76,-2.63 0.26,-0.87 0.52,-1.74 0.8,-2.61 0.27,-0.87 0.54,-1.74 0.83,-2.61 0.28,-0.87 0.57,-1.73 0.87,-2.59l0 0c0.29,-0.87 0.59,-1.73 0.9,-2.58l0 -0.01c0.31,-0.85 0.62,-1.71 0.94,-2.56 0.32,-0.86 0.65,-1.71 0.98,-2.56l0 0c0.33,-0.84 0.67,-1.69 1.01,-2.53l0 0c0.35,-0.85 0.7,-1.69 1.05,-2.52l0 -0.01c0.36,-0.83 0.72,-1.67 1.09,-2.5 0.37,-0.83 0.74,-1.66 1.12,-2.49l0 0c0.38,-0.82 0.77,-1.64 1.16,-2.46l0 0c0.4,-0.82 0.79,-1.64 1.2,-2.45l0 0c0.4,-0.82 0.81,-1.62 1.23,-2.43 0.42,-0.81 0.84,-1.61 1.27,-2.41 0.43,-0.79 0.86,-1.59 1.3,-2.38 0.44,-0.79 0.89,-1.58 1.34,-2.36l0 0c0.46,-0.79 0.91,-1.57 1.38,-2.34 0.46,-0.77 0.93,-1.55 1.41,-2.31 0.48,-0.77 0.96,-1.53 1.45,-2.29 0.98,-1.52 1.98,-3.02 3.01,-4.5l0 0c0.51,-0.74 1.03,-1.47 1.56,-2.2l0 0c0.52,-0.73 1.05,-1.46 1.59,-2.18 0.54,-0.72 1.08,-1.44 1.63,-2.15 0.55,-0.71 1.1,-1.41 1.67,-2.11 0.56,-0.7 1.12,-1.4 1.7,-2.09l0 0c0.57,-0.69 1.15,-1.37 1.74,-2.05l0 0c0.58,-0.68 1.17,-1.35 1.77,-2.02 0.6,-0.67 1.2,-1.33 1.81,-1.99l0 0c0.61,-0.66 1.23,-1.31 1.85,-1.95 0.62,-0.64 1.25,-1.28 1.88,-1.92 0.64,-0.63 1.28,-1.25 1.92,-1.88l0 0c0.65,-0.62 1.3,-1.23 1.96,-1.84 0.65,-0.61 1.32,-1.21 1.99,-1.8 0.67,-0.6 1.34,-1.19 2.02,-1.77 0.69,-0.58 1.37,-1.16 2.07,-1.72 0.69,-0.57 1.39,-1.13 2.1,-1.69l0 0c0.7,-0.55 1.42,-1.1 2.13,-1.64 0.72,-0.54 1.45,-1.08 2.18,-1.6 0.73,-0.53 1.46,-1.05 2.2,-1.56 0.74,-0.51 1.49,-1.02 2.25,-1.51 0.75,-0.5 1.51,-0.99 2.28,-1.47 0.76,-0.49 1.53,-0.96 2.31,-1.43 0.78,-0.46 1.56,-0.92 2.35,-1.37l34.56 48.89 0 0 0 0 9.35 13.24c3.25,-4.27 6.68,-8.4 10.28,-12.36z"/>
</svg>