<?xml version="1.0" encoding="UTF-8"?>
<!DOCTYPE svg PUBLIC "-//W3C//DTD SVG 1.1//EN" "http://www.w3.org/Graphics/SVG/1.1/DTD/svg11.dtd">

<svg xmlns="http://www.w3.org/2000/svg" xml:space="preserve" width="512px" height="512px" version="1.1" style="shape-rendering:geometricPrecision; text-rendering:geometricPrecision; image-rendering:optimizeQuality; fill-rule:evenodd; clip-rule:evenodd" viewBox="0 0 512 512" xmlns:xlink="http://www.w3.org/1999/xlink">
    <defs>
        <style type="text/css">
        <![CDATA[
            .fil1 {fill:#0087F8}
        ]]>
        </style>
    </defs>
    <path class="fil1" d="M196.35 147.11c0,32.95 26.71,59.65 59.65,59.65 32.94,0 59.65,-26.7 59.65,-59.65 0,-32.94 -26.71,-59.65 -59.65,-59.65 -32.94,0 -59.65,26.71 -59.65,59.65zm-87.25 7.88c5.22,109.85 116.96,245.28 146.9,357.01 29.94,-111.73 141.68,-247.16 146.9,-357.01l0.04 -0.81c0.04,-0.88 0.08,-1.76 0.1,-2.64 0.04,-1.47 0.07,-2.95 0.07,-4.43 0,-81.25 -65.86,-147.11 -147.11,-147.11 -81.25,0 -147.11,65.86 -147.11,147.11 0,1.48 0.02,2.96 0.07,4.43 0.03,0.88 0.06,1.76 0.1,2.64l0.04 0.81zm92.81 186.36c-28.11,-52.87 -68.66,-126.89 -71.53,-187.37l-0.04 -0.81c-0.03,-0.76 -0.06,-1.52 -0.09,-2.28 -0.03,-1.26 -0.06,-2.52 -0.06,-3.78 0,-69.49 56.32,-125.81 125.81,-125.81 69.49,0 125.81,56.32 125.81,125.81 0,1.28 -0.03,2.55 -0.07,3.82 -0.02,0.75 -0.05,1.5 -0.08,2.24l-0.04 0.81c-2.87,60.48 -43.42,134.5 -71.53,187.37 -18.05,33.96 -38.15,70.32 -54.09,107.31 -15.94,-36.99 -36.04,-73.35 -54.09,-107.31zm54.09 -155.89c-21.18,0 -38.35,-17.17 -38.35,-38.35 0,-21.17 17.17,-38.34 38.35,-38.34 21.18,0 38.35,17.17 38.35,38.34 0,21.18 -17.17,38.35 -38.35,38.35z"/>
</svg>