<?xml version="1.0" encoding="UTF-8"?>
<!DOCTYPE svg PUBLIC "-//W3C//DTD SVG 1.1//EN" "http://www.w3.org/Graphics/SVG/1.1/DTD/svg11.dtd">
<svg xmlns="http://www.w3.org/2000/svg" xml:space="preserve" width="512px" height="512px" version="1.1" style="shape-rendering:geometricPrecision; text-rendering:geometricPrecision; image-rendering:optimizeQuality; fill-rule:evenodd; clip-rule:evenodd"
viewBox="0 0 512 512" xmlns:xlink="http://www.w3.org/1999/xlink">
<defs>
    <style type="text/css">
    <![CDATA[
        .fil0 {fill:#ffffff}
    ]]>
    </style>
</defs>
<path class="fil0" d="M133.18 512l279.22 0c5.86,0 10.6,-4.75 10.6,-10.6 0,-5.86 -4.74,-10.61 -10.6,-10.61l-279.22 0c-12.69,0 -22.98,-10.28 -22.98,-22.97 0,-12.69 10.29,-22.98 22.98,-22.98l279.22 0c5.86,0 10.6,-4.74 10.6,-10.6l0 -423.64c0,-5.86 -4.74,-10.6 -10.6,-10.6l-279.22 0c-24.4,0 -44.18,19.78 -44.18,44.18l0 358.25c0,5.86 4.75,10.61 10.6,10.61 5.86,0 10.6,-4.75 10.6,-10.61l0 -358.25c0,-12.69 10.29,-22.97 22.98,-22.98l268.62 0 0 402.44 -268.62 0c-24.4,0 -44.18,19.78 -44.18,44.18 0,24.4 19.78,44.18 44.18,44.18zm-7.96 -109.17c0,2.92 2.38,5.3 5.31,5.3 2.92,0 5.3,-2.38 5.3,-5.3l0 -0.22 0 -345.89c0,-2.93 -2.38,-5.31 -5.3,-5.31 -2.93,0 -5.31,2.38 -5.31,5.31l0 345.49 0 0.62zm61.62 -356.32l168.89 0c11.82,0 21.5,9.67 21.5,21.5l0 49.9c0,11.83 -9.68,21.5 -21.5,21.5l-168.89 0c-11.82,0 -21.5,-9.67 -21.5,-21.5l0 -49.9c0,-11.83 9.68,-21.5 21.5,-21.5zm225.56 410.71c5.86,0 10.6,4.74 10.6,10.6 0,5.86 -4.74,10.6 -10.6,10.6l-268.62 0c-5.85,0 -10.6,-4.74 -10.6,-10.6 0,-5.86 4.75,-10.6 10.6,-10.6l268.62 0z"/>
</svg>