<?xml version="1.0" encoding="UTF-8"?>
<!DOCTYPE svg PUBLIC "-//W3C//DTD SVG 1.1//EN" "http://www.w3.org/Graphics/SVG/1.1/DTD/svg11.dtd">
<svg xmlns="http://www.w3.org/2000/svg" xml:space="preserve" width="512px" height="512px" version="1.1" style="shape-rendering:geometricPrecision; text-rendering:geometricPrecision; image-rendering:optimizeQuality; fill-rule:evenodd; clip-rule:evenodd" viewBox="0 0 512 512" xmlns:xlink="http://www.w3.org/1999/xlink">

<defs>
    <style type="text/css">
    <![CDATA[
        .fil0 {fill:#fff}
    ]]>
    </style>
</defs>
    <path class="fil0" d="M0.61 0.42l0 139.76 35.25 0 0 -56.35 6.35 0c12.29,0 19.26,3.28 29.92,24.79l16.19 31.56 38.52 0 -18.24 -35.25c-8.6,-16.19 -13.93,-22.74 -22.74,-27.66 15.57,-6.97 22.95,-19.26 22.95,-34.63 0,-24.59 -17.01,-42.22 -50,-42.22l-58.2 0zm508.74 7.92l2.44 80.48c0.32,10.65 -4.44,19.59 -14.79,10.9l-24.63 -20.7 -147.83 175.99 0 0 -22.11 26.32 -79.1 -58 -194.24 183.13 -0.06 0.07c-3.07,2.89 -7.21,4.67 -11.77,4.67 -9.47,0 -17.15,-7.68 -17.15,-17.15 0,-4.92 2.07,-9.35 5.39,-12.48l0 0 215.08 -202.8 76.24 55.91 149.29 -177.72 -24.63 -20.69c-10.36,-8.7 -2.38,-14.93 8.18,-16.45l79.69 -11.48zm-480.32 435.74l0 67.5 61.47 0 0 -125.46 -61.47 57.96zm382.52 -250.17l0 317.67 61.47 0 0 -390.86 -61.47 73.19zm-97.58 116.17l0 201.5 61.47 0 0 -274.69 -61.47 73.19zm-97.58 -42.65l0 244.15 61.47 0 0 -214.38 -52.34 -38.39 -9.13 8.62zm-97.58 92l0 152.15 61.47 0 0 -210.11 -61.47 57.96zm124.63 -268.23c0,-41.8 -27.25,-50.41 -59.02,-50.41l-44.46 0 0 146.32 30.73 0 0 -51.85c9.23,5.53 15.78,6.76 24.8,6.76 32.17,0 47.95,-25 47.95,-50.82zm-72.75 -26.84l14.14 0c16.19,0 26.64,9.63 26.64,27.87 0,15.37 -9.42,26.02 -22.74,26.02 -5.54,0 -12.5,-1.64 -18.04,-5.74l0 -48.15zm-134.83 -39.96l15.37 0c15.16,0 21.72,6.97 21.72,18.65 0,14.34 -9.02,18.03 -22.34,18.03l-14.75 0 0 -36.68z"/>
</svg>