<?xml version="1.0" encoding="UTF-8"?>
<!DOCTYPE svg PUBLIC "-//W3C//DTD SVG 1.1//EN" "http://www.w3.org/Graphics/SVG/1.1/DTD/svg11.dtd">
<svg xmlns="http://www.w3.org/2000/svg" xml:space="preserve" width="512px" height="512px" version="1.1" style="shape-rendering:geometricPrecision; text-rendering:geometricPrecision; image-rendering:optimizeQuality; fill-rule:evenodd; clip-rule:evenodd" viewBox="0 0 512 512" xmlns:xlink="http://www.w3.org/1999/xlink">

<defs>
    <style type="text/css">
    <![CDATA[
        .fil0 {fill:#fff}
    ]]>
    </style>
</defs>
    <path class="fil0" d="M85.91 0l278.18 0c17.05,0 31,13.95 31,31l0 387.99c0,17.05 -13.95,31 -31,31l-278.18 0c-17.06,0 -31.01,-13.95 -31.01,-31l0 -387.99c0,-17.05 13.95,-31 31.01,-31zm340.18 501.67l-278.18 0c-6.08,0 -11.58,-2.67 -15.37,-6.89l-12.18 0c-0.07,0 -0.14,0 -0.2,0 5.1,10.19 15.64,17.22 27.75,17.22l278.18 0c17.06,0 31.01,-13.95 31.01,-31l0 -387.99c0,-12.11 -7.04,-22.66 -17.23,-27.75 0,0.06 0,0.13 0,0.19l0 12.19c4.23,3.79 6.89,9.28 6.89,15.37l0 387.99c0,11.37 -9.3,20.67 -20.67,20.67zm-34.45 -34.45l-278.18 0c-6.08,0 -11.58,-2.67 -15.37,-6.89l-12.18 0c-0.07,0 -0.14,0 -0.2,0 5.1,10.18 15.64,17.22 27.75,17.22l278.18 0c17.05,0 31.01,-13.95 31.01,-31l0 -387.99c0,-12.11 -7.04,-22.66 -17.23,-27.75 0,0.06 0,0.13 0,0.19l0 12.19c4.23,3.79 6.89,9.28 6.89,15.37l0 387.99c0,11.36 -9.3,20.67 -20.67,20.67zm-300.25 -433.31l267.22 0c3.01,0 5.48,2.47 5.48,5.48l0 12.73c0,3.01 -2.47,5.48 -5.48,5.48l-267.22 0c-3.02,0 -5.48,-2.47 -5.48,-5.48l0 -12.73c0,-3.01 2.46,-5.48 5.48,-5.48zm173.76 211.54l85.16 0c7.58,0 13.78,6.2 13.78,13.78l0 24.66c0,7.58 -6.2,13.77 -13.78,13.77l-85.16 0c-7.58,0 -13.78,-6.19 -13.78,-13.77l0 -24.66c0,-7.58 6.2,-13.78 13.78,-13.78zm-165.46 0l85.15 0c7.58,0 13.78,6.2 13.78,13.78l0 24.66c0,7.58 -6.2,13.77 -13.78,13.77l-85.15 0c-7.58,0 -13.78,-6.19 -13.78,-13.77l0 -24.66c0,-7.58 6.2,-13.78 13.78,-13.78zm165.46 -75.36l85.16 0c7.58,0 13.78,6.2 13.78,13.78l0 24.66c0,7.58 -6.2,13.78 -13.78,13.78l-85.16 0c-7.58,0 -13.78,-6.2 -13.78,-13.78l0 -24.66c0,-7.58 6.2,-13.78 13.78,-13.78zm-165.46 0l85.15 0c7.58,0 13.78,6.2 13.78,13.78l0 24.66c0,7.58 -6.2,13.78 -13.78,13.78l-85.15 0c-7.58,0 -13.78,-6.2 -13.78,-13.78l0 -24.66c0,-7.58 6.2,-13.78 13.78,-13.78zm165.46 -75.35l85.16 0c7.58,0 13.78,6.19 13.78,13.78l0 24.65c0,7.58 -6.2,13.78 -13.78,13.78l-85.16 0c-7.58,0 -13.78,-6.2 -13.78,-13.78l0 -24.65c0,-7.59 6.2,-13.78 13.78,-13.78zm-165.46 0l85.15 0c7.58,0 13.78,6.19 13.78,13.78l0 24.65c0,7.58 -6.2,13.78 -13.78,13.78l-85.15 0c-7.58,0 -13.78,-6.2 -13.78,-13.78l0 -24.65c0,-7.59 6.2,-13.78 13.78,-13.78z"/>
</svg>