<?xml version="1.0" encoding="UTF-8"?>
<!DOCTYPE svg PUBLIC "-//W3C//DTD SVG 1.1//EN" "http://www.w3.org/Graphics/SVG/1.1/DTD/svg11.dtd">
<svg xmlns="http://www.w3.org/2000/svg" xml:space="preserve" width="512px" height="512px" version="1.1" style="shape-rendering:geometricPrecision; text-rendering:geometricPrecision; image-rendering:optimizeQuality; fill-rule:evenodd; clip-rule:evenodd" viewBox="0 0 512 512" xmlns:xlink="http://www.w3.org/1999/xlink">

<defs>
    <style type="text/css">
    <![CDATA[
        .fil0 {fill:#fff}
    ]]>
    </style>
</defs>
    <path class="fil0" d="M247.69 31.66c-118.1,0 -213.83,95.74 -213.83,213.83l-23.6 0c-10.64,0 -12.83,6.76 -7.39,12.83l60.46 67.35 60.45 -67.35c5.44,-6.07 3.26,-12.83 -7.38,-12.83l-23.6 0c0,-85.54 69.34,-154.89 154.89,-154.89 79.59,0 145.15,60.05 153.88,137.31 21.52,0.41 41.84,5.69 59.91,14.79 -1.5,-116.8 -96.64,-211.04 -213.79,-211.04zm151.19 222.44c62.48,0 113.12,50.64 113.12,113.12 0,62.47 -50.64,113.12 -113.12,113.12 -62.47,0 -113.11,-50.65 -113.11,-113.12 0,-62.48 50.64,-113.12 113.11,-113.12zm0 15.83c53.73,0 97.29,43.56 97.29,97.29 0,53.73 -43.56,97.29 -97.29,97.29 -53.73,0 -97.29,-43.56 -97.29,-97.29 0,-53.73 43.56,-97.29 97.29,-97.29zm72.74 103.27c0,-22.51 -14.68,-27.15 -31.78,-27.15l-23.95 0 0 78.79 16.55 0 0 -27.92c4.97,2.98 8.5,3.65 13.35,3.65 17.33,0 25.83,-13.47 25.83,-27.37zm-39.18 -14.46l7.62 0c8.71,0 14.34,5.19 14.34,15.01 0,8.28 -5.07,14.01 -12.25,14.01 -2.98,0 -6.73,-0.88 -9.71,-3.09l0 -25.93zm-91.59 -34.43l0 75.26 18.98 0 0 -30.34 3.42 0c6.62,0 10.38,1.76 16.11,13.35l8.72 16.99 20.75 0 -9.82 -18.98c-4.64,-8.72 -7.51,-12.25 -12.25,-14.9 8.38,-3.75 12.36,-10.37 12.36,-18.64 0,-13.25 -9.16,-22.74 -26.93,-22.74l-31.34 0zm18.98 12.91l8.28 0c8.16,0 11.7,3.76 11.7,10.05 0,7.72 -4.86,9.71 -12.03,9.71l-7.95 0 0 -19.76zm-75.02 -50.03l-45.67 -26.38c-5.37,-3 -9,-8.73 -9,-15.32l0 -128.84c0,-9.69 7.86,-17.55 17.55,-17.55 9.68,0 17.54,7.86 17.54,17.55l0 118.71 43.85 25.32c-9.18,7.75 -17.34,16.66 -24.27,26.51zm-21.48 112.4c-5.15,0.52 -10.36,0.79 -15.64,0.79 -42.77,0 -81.5,-17.34 -109.53,-45.37l-41.67 41.68c38.69,38.69 92.15,62.63 151.2,62.63 14.72,0 29.09,-1.49 42.97,-4.33 -12.93,-15.93 -22.42,-34.78 -27.33,-55.4z"/>
</svg>