<?xml version="1.0" encoding="UTF-8"?>
<!DOCTYPE svg PUBLIC "-//W3C//DTD SVG 1.1//EN" "http://www.w3.org/Graphics/SVG/1.1/DTD/svg11.dtd">
<svg xmlns="http://www.w3.org/2000/svg" xml:space="preserve" width="130px" height="33px" version="1.1" style="shape-rendering:geometricPrecision; text-rendering:geometricPrecision; image-rendering:optimizeQuality; fill-rule:evenodd; clip-rule:evenodd" viewBox="0 0 34.35 8.59" xmlns:xlink="http://www.w3.org/1999/xlink">
    <defs>
        <style type="text/css">
            <![CDATA[
                .fil0 {fill:#0087F8}
                .fil1 {fill:black;fill-rule:nonzero}
            ]]>
        </style>
    </defs>
    <path class="fil0" d="M7.26 6.03c0.06,0 0.11,0.05 0.11,0.12l0 1.02c0,0.32 -0.26,0.58 -0.58,0.58l-5.37 0c-0.32,0 -0.58,-0.26 -0.58,-0.58l0 -4.29c0,-0.32 0.26,-0.58 0.58,-0.58l5.37 0c0.32,0 0.58,0.26 0.58,0.58l0 1.02c0,0.06 -0.05,0.11 -0.11,0.11 -0.12,0 -0.4,0 -1.07,0 -0.38,0 -0.69,0.31 -0.69,0.7l0 0.63c0,0.38 0.31,0.69 0.69,0.69 0.68,0 0.95,0 1.07,0zm0.5 -1.32l0 0.63c0,0.25 -0.21,0.46 -0.46,0.46l-1.11 0c-0.25,0 -0.46,-0.21 -0.46,-0.46l0 -0.63c0,-0.26 0.21,-0.47 0.46,-0.47l1.11 0c0.25,0 0.46,0.21 0.46,0.47zm-1.14 0.31c0,-0.06 -0.05,-0.11 -0.11,-0.11l-0.18 0c-0.06,0 -0.11,0.05 -0.11,0.11 0,0.07 0.05,0.12 0.11,0.12l0.18 0c0.06,0 0.11,-0.05 0.11,-0.12zm-0.29 -3.44l-0.11 -0.03c-0.04,-0.02 -0.09,0 -0.12,0.04 -0.09,0.11 -0.16,0.22 -0.17,0.35 0,0.07 0.05,0.13 0.12,0.13l0.49 0c0.07,0 0.13,-0.07 0.11,-0.14 -0.03,-0.16 -0.15,-0.3 -0.32,-0.35zm-0.63 0.38c0,-0.14 0.05,-0.26 0.12,-0.38 0.04,-0.07 0.01,-0.15 -0.07,-0.17l-0.73 -0.22c-0.07,-0.02 -0.14,0.03 -0.14,0.11l0 0.65c0,0.07 0.05,0.12 0.11,0.12l0.59 0c0.07,0 0.12,-0.05 0.12,-0.11zm-2.84 0.11l0.16 0c0.06,0 0.11,-0.05 0.11,-0.12l0 -0.99c0,-0.06 -0.05,-0.12 -0.11,-0.12l-0.16 0c-0.06,0 -0.11,0.06 -0.11,0.12l0 0.99c0,0.07 0.05,0.12 0.11,0.12zm1.33 -1.23l-0.71 0c-0.06,0 -0.11,0.06 -0.11,0.12l0 0.99c0,0.07 0.05,0.12 0.11,0.12l1.05 0c0.07,0 0.12,-0.05 0.12,-0.12l0 -0.65c0,-0.25 -0.21,-0.46 -0.46,-0.46zm-1.79 0l-0.16 0c-0.25,0 -0.46,0.21 -0.46,0.46l0 0.65c0,0.07 0.05,0.12 0.12,0.12l0.5 0c0.06,0 0.12,-0.05 0.12,-0.12l0 -0.99c0,-0.06 -0.06,-0.12 -0.12,-0.12z"/>
    <path class="fil0" d="M7.26 6.03c0.06,0 0.11,0.05 0.11,0.12l0 1.02c0,0.32 -0.26,0.58 -0.58,0.58l-5.37 0c-0.32,0 -0.58,-0.26 -0.58,-0.58l0 -4.29c0,-0.32 0.26,-0.58 0.58,-0.58l5.37 0c0.32,0 0.58,0.26 0.58,0.58l0 1.02c0,0.06 -0.05,0.11 -0.11,0.11 -0.12,0 -0.4,0 -1.07,0 -0.38,0 -0.69,0.31 -0.69,0.7l0 0.63c0,0.38 0.31,0.69 0.69,0.69 0.68,0 0.95,0 1.07,0zm0.5 -1.32l0 0.63c0,0.25 -0.21,0.46 -0.46,0.46l-1.11 0c-0.25,0 -0.46,-0.21 -0.46,-0.46l0 -0.63c0,-0.26 0.21,-0.47 0.46,-0.47l1.11 0c0.25,0 0.46,0.21 0.46,0.47zm-1.14 0.31c0,-0.06 -0.05,-0.11 -0.11,-0.11l-0.18 0c-0.06,0 -0.11,0.05 -0.11,0.11 0,0.07 0.05,0.12 0.11,0.12l0.18 0c0.06,0 0.11,-0.05 0.11,-0.12zm-0.29 -3.44l-0.11 -0.03c-0.04,-0.02 -0.09,0 -0.12,0.04 -0.09,0.11 -0.16,0.22 -0.17,0.35 0,0.07 0.05,0.13 0.12,0.13l0.49 0c0.07,0 0.13,-0.07 0.11,-0.14 -0.03,-0.16 -0.15,-0.3 -0.32,-0.35zm-0.63 0.38c0,-0.14 0.05,-0.26 0.12,-0.38 0.04,-0.07 0.01,-0.15 -0.07,-0.17l-0.73 -0.22c-0.07,-0.02 -0.14,0.03 -0.14,0.11l0 0.65c0,0.07 0.05,0.12 0.11,0.12l0.59 0c0.07,0 0.12,-0.05 0.12,-0.11zm-2.84 0.11l0.16 0c0.06,0 0.11,-0.05 0.11,-0.12l0 -0.99c0,-0.06 -0.05,-0.12 -0.11,-0.12l-0.16 0c-0.06,0 -0.11,0.06 -0.11,0.12l0 0.99c0,0.07 0.05,0.12 0.11,0.12zm1.33 -1.23l-0.71 0c-0.06,0 -0.11,0.06 -0.11,0.12l0 0.99c0,0.07 0.05,0.12 0.11,0.12l1.05 0c0.07,0 0.12,-0.05 0.12,-0.12l0 -0.65c0,-0.25 -0.21,-0.46 -0.46,-0.46zm-1.79 0l-0.16 0c-0.25,0 -0.46,0.21 -0.46,0.46l0 0.65c0,0.07 0.05,0.12 0.12,0.12l0.5 0c0.06,0 0.12,-0.05 0.12,-0.12l0 -0.99c0,-0.06 -0.06,-0.12 -0.12,-0.12z"/>
    <path class="fil1" d="M11.9 6.76l-1.66 -1.92 0 1.92 -0.7 0 0 -4.29 0.7 0 0 1.96 1.67 -1.96 0.88 0 -1.86 2.15 1.89 2.14 -0.92 0zm1.31 -1.72c0,-0.34 0.07,-0.64 0.22,-0.9 0.14,-0.27 0.33,-0.47 0.58,-0.62 0.24,-0.14 0.51,-0.22 0.81,-0.22 0.27,0 0.5,0.06 0.7,0.16 0.2,0.11 0.36,0.24 0.48,0.39l0 -0.49 0.71 0 0 3.4 -0.71 0 0 -0.51c-0.12,0.17 -0.28,0.3 -0.49,0.41 -0.21,0.1 -0.44,0.16 -0.7,0.16 -0.3,0 -0.56,-0.08 -0.81,-0.23 -0.24,-0.15 -0.43,-0.36 -0.57,-0.63 -0.15,-0.27 -0.22,-0.57 -0.22,-0.92zm2.79 0.02c0,-0.24 -0.05,-0.44 -0.15,-0.62 -0.09,-0.17 -0.22,-0.3 -0.38,-0.39 -0.15,-0.09 -0.32,-0.14 -0.5,-0.14 -0.19,0 -0.35,0.05 -0.51,0.14 -0.16,0.09 -0.28,0.22 -0.38,0.39 -0.1,0.17 -0.15,0.37 -0.15,0.6 0,0.24 0.05,0.44 0.15,0.62 0.1,0.18 0.22,0.31 0.38,0.41 0.16,0.09 0.33,0.14 0.51,0.14 0.18,0 0.35,-0.05 0.5,-0.14 0.16,-0.09 0.29,-0.22 0.38,-0.4 0.1,-0.17 0.15,-0.38 0.15,-0.61zm2.98 0l1.57 1.7 -0.95 0 -1.26 -1.46 0 1.46 -0.71 0 0 -4.57 0.71 0 0 2.66 1.23 -1.49 0.98 0 -1.57 1.7zm1.84 -0.02c0,-0.34 0.07,-0.64 0.21,-0.9 0.15,-0.27 0.34,-0.47 0.58,-0.62 0.25,-0.14 0.52,-0.22 0.82,-0.22 0.26,0 0.5,0.06 0.7,0.16 0.2,0.11 0.36,0.24 0.48,0.39l0 -0.49 0.71 0 0 3.4 -0.71 0 0 -0.51c-0.12,0.17 -0.29,0.3 -0.49,0.41 -0.21,0.1 -0.44,0.16 -0.71,0.16 -0.29,0 -0.56,-0.08 -0.8,-0.23 -0.24,-0.15 -0.43,-0.36 -0.58,-0.63 -0.14,-0.27 -0.21,-0.57 -0.21,-0.92zm2.79 0.02c0,-0.24 -0.05,-0.44 -0.15,-0.62 -0.1,-0.17 -0.22,-0.3 -0.38,-0.39 -0.16,-0.09 -0.32,-0.14 -0.51,-0.14 -0.18,0 -0.35,0.05 -0.5,0.14 -0.16,0.09 -0.29,0.22 -0.38,0.39 -0.1,0.17 -0.15,0.37 -0.15,0.6 0,0.24 0.05,0.44 0.15,0.62 0.09,0.18 0.22,0.31 0.38,0.41 0.16,0.09 0.33,0.14 0.5,0.14 0.19,0 0.35,-0.05 0.51,-0.14 0.16,-0.09 0.28,-0.22 0.38,-0.4 0.1,-0.17 0.15,-0.38 0.15,-0.61zm2.34 -1.2c0.12,-0.16 0.28,-0.29 0.49,-0.4 0.2,-0.1 0.44,-0.16 0.69,-0.16 0.3,0 0.57,0.07 0.82,0.22 0.24,0.14 0.43,0.35 0.57,0.61 0.14,0.27 0.21,0.57 0.21,0.91 0,0.35 -0.07,0.65 -0.21,0.92 -0.14,0.27 -0.33,0.48 -0.58,0.63 -0.24,0.15 -0.51,0.23 -0.81,0.23 -0.26,0 -0.5,-0.05 -0.7,-0.16 -0.2,-0.1 -0.36,-0.23 -0.48,-0.39l0 0.49 -0.71 0 0 -4.57 0.71 0 0 1.67zm2.06 1.18c0,-0.23 -0.04,-0.43 -0.14,-0.6 -0.1,-0.17 -0.22,-0.3 -0.38,-0.39 -0.16,-0.09 -0.33,-0.14 -0.51,-0.14 -0.18,0 -0.35,0.05 -0.51,0.14 -0.15,0.09 -0.28,0.22 -0.38,0.39 -0.1,0.18 -0.14,0.38 -0.14,0.62 0,0.23 0.04,0.44 0.14,0.61 0.1,0.18 0.23,0.31 0.38,0.4 0.16,0.09 0.33,0.14 0.51,0.14 0.18,0 0.35,-0.05 0.51,-0.14 0.16,-0.1 0.28,-0.23 0.38,-0.41 0.1,-0.18 0.14,-0.38 0.14,-0.62zm1.78 -2.13c-0.13,0 -0.24,-0.05 -0.32,-0.13 -0.09,-0.09 -0.13,-0.2 -0.13,-0.32 0,-0.13 0.04,-0.24 0.13,-0.32 0.08,-0.09 0.19,-0.13 0.32,-0.13 0.12,0 0.23,0.04 0.31,0.13 0.09,0.08 0.13,0.19 0.13,0.32 0,0.12 -0.04,0.23 -0.13,0.32 -0.08,0.08 -0.19,0.13 -0.31,0.13zm0.34 0.45l0 3.4 -0.7 0 0 -3.4 0.7 0zm1.55 2.83l1.55 0 0 0.57 -2.36 0 0 -0.57 1.55 -2.26 -1.55 0 0 -0.57 2.36 0 0 0.57 -1.55 2.26z"/>
</svg>