<?xml version="1.0" encoding="UTF-8"?>
<!DOCTYPE svg PUBLIC "-//W3C//DTD SVG 1.1//EN" "http://www.w3.org/Graphics/SVG/1.1/DTD/svg11.dtd">
<svg xmlns="http://www.w3.org/2000/svg" xml:space="preserve" width="1980px" height="600px" version="1.1" style="shape-rendering:geometricPrecision; text-rendering:geometricPrecision; image-rendering:optimizeQuality; fill-rule:evenodd; clip-rule:evenodd" viewBox="0 0 1980 600" xmlns:xlink="http://www.w3.org/1999/xlink">
 <defs>
  <style type="text/css">
   <![CDATA[
    .fil1 {fill:white}
    .fil0 {fill:url(#id0)}
   ]]>
  </style>
  <linearGradient id="id0" gradientUnits="objectBoundingBox" x1="0%" y1="50%" x2="100%" y2="50%">
   <stop offset="0" style="stop-opacity:1; stop-color:#0087F8"/>
   <stop offset="1" style="stop-opacity:1; stop-color:#2B6799"/>
  </linearGradient>
 </defs>
  <path class="fil0" d="M0 340.21l0 259.79 1980 0 0 -519.71c-5.26,0 -10.12,-1.76 -14,-4.73l-169.99 223.16c5.53,4.22 9.1,10.89 9.1,18.38 0,12.77 -10.35,23.11 -23.11,23.11 -12.76,0 -23.11,-10.34 -23.11,-23.11 0,-6.22 2.46,-11.86 6.46,-16.02l-164.7 -158.5c-4.2,4.37 -10.11,7.08 -16.65,7.08 -11.68,0 -21.34,-8.67 -22.89,-19.93l-152.22 21.08c0.15,1.04 0.22,2.1 0.22,3.18 0,12.76 -10.35,23.1 -23.11,23.1 -8.39,0 -15.74,-4.47 -19.79,-11.17l-158.42 95.52c2.11,3.49 3.32,7.57 3.32,11.94 0,12.76 -10.35,23.11 -23.11,23.11 -12.76,0 -23.11,-10.35 -23.11,-23.11 0,-5.78 2.12,-11.06 5.62,-15.11l-163.02 -140.81c-4.24,4.9 -10.5,8 -17.49,8 -10.08,0 -18.66,-6.46 -21.81,-15.46l-154.38 54.09c0.84,2.39 1.3,4.96 1.3,7.64 0,12.76 -10.35,23.11 -23.11,23.11 -12.76,0 -23.11,-10.35 -23.11,-23.11 0,-0.88 0.05,-1.76 0.15,-2.62l-152.08 -17.35c-1.3,11.53 -11.08,20.49 -22.96,20.49 -8.1,0 -15.23,-4.17 -19.36,-10.48l-159.28 103.83c2.37,3.63 3.75,7.96 3.75,12.62 0,12.76 -10.35,23.11 -23.11,23.11 -12.76,0 -23.11,-10.35 -23.11,-23.11 0,-2.26 0.33,-4.44 0.93,-6.51l-153.64 -45.07c-2.81,9.59 -11.68,16.6 -22.18,16.6 -9.11,0 -17,-5.27 -20.76,-12.94l-156.48 76.64c1.5,3.07 2.35,6.52 2.35,10.16 0,12.77 -10.35,23.11 -23.11,23.11z"/>
  <path class="fil0" d="M20.76 306.94c1.5,3.07 2.35,6.52 2.35,10.16 0,12.77 -10.35,23.11 -23.11,23.11l0 -23.11 0 -23.1c9.11,0 17,5.27 20.76,12.94zm199.42 -80.3c-2.81,9.59 -11.68,16.6 -22.18,16.6 -9.11,0 -17,-5.27 -20.76,-12.94 -1.5,-3.07 -2.35,-6.52 -2.35,-10.16 0,-12.77 10.35,-23.11 23.11,-23.11 12.76,0 23.11,10.34 23.11,23.11 0,2.25 -0.33,4.44 -0.93,6.5zm195.18 38.96c2.37,3.63 3.75,7.96 3.75,12.62 0,12.76 -10.35,23.11 -23.11,23.11 -12.76,0 -23.11,-10.35 -23.11,-23.11 0,-2.26 0.33,-4.44 0.93,-6.51 2.81,-9.59 11.68,-16.6 22.18,-16.6 8.11,0 15.24,4.17 19.36,10.49zm201.6 -113.84c-1.3,11.53 -11.08,20.49 -22.96,20.49 -8.1,0 -15.23,-4.17 -19.36,-10.48 -2.37,-3.63 -3.75,-7.97 -3.75,-12.62 0,-12.77 10.35,-23.11 23.11,-23.11 12.76,0 23.11,10.34 23.11,23.11 0,0.88 -0.05,1.75 -0.15,2.61zm196.85 12.33c0.84,2.39 1.3,4.96 1.3,7.64 0,12.76 -10.35,23.11 -23.11,23.11 -12.76,0 -23.11,-10.35 -23.11,-23.11 0,-0.88 0.05,-1.76 0.15,-2.62 1.3,-11.52 11.08,-20.49 22.96,-20.49 10.08,0 18.66,6.46 21.81,15.47zm193.68 -46.63c-4.24,4.9 -10.5,8 -17.49,8 -10.08,0 -18.66,-6.46 -21.81,-15.46 -0.84,-2.39 -1.3,-4.97 -1.3,-7.64 0,-12.77 10.35,-23.11 23.11,-23.11 12.76,0 23.11,10.34 23.11,23.11 0,5.77 -2.12,11.05 -5.62,15.1zm958.51 -41.9c-5.54,-4.22 -9.11,-10.88 -9.11,-18.38 0,-12.76 10.35,-23.11 23.11,-23.11l0 23.11 0 23.11c-5.26,0 -10.12,-1.76 -14,-4.73zm-758.21 185.88c2.11,3.49 3.32,7.57 3.32,11.94 0,12.76 -10.35,23.11 -23.11,23.11 -12.76,0 -23.11,-10.35 -23.11,-23.11 0,-5.78 2.12,-11.06 5.62,-15.11 4.24,-4.9 10.5,-8 17.49,-8 8.4,0 15.75,4.48 19.79,11.17zm201.1 -110.63c0.15,1.04 0.22,2.1 0.22,3.18 0,12.76 -10.35,23.1 -23.11,23.1 -8.39,0 -15.74,-4.47 -19.79,-11.17 -2.1,-3.48 -3.32,-7.57 -3.32,-11.93 0,-12.77 10.35,-23.11 23.11,-23.11 11.69,0 21.35,8.67 22.89,19.93zm191.76 -8.23c-4.2,4.37 -10.11,7.08 -16.65,7.08 -11.68,0 -21.34,-8.67 -22.89,-19.93 -0.14,-1.04 -0.22,-2.1 -0.22,-3.17 0,-12.77 10.35,-23.11 23.11,-23.11 12.76,0 23.11,10.34 23.11,23.11 0,6.22 -2.46,11.86 -6.46,16.02zm181.35 197.63c-12.76,0 -23.11,-10.34 -23.11,-23.11 0,-6.22 2.46,-11.86 6.46,-16.02 4.21,-4.37 10.11,-7.08 16.65,-7.08 5.27,0 10.12,1.76 14.01,4.72 5.53,4.22 9.1,10.89 9.1,18.38 0,12.77 -10.35,23.11 -23.11,23.11z"/>
  <path class="fil1" d="M1765.29 317.24c0,-22.09 34,-22.58 34,0 0,22.26 -34,22.26 -34,0zm19.91 29l-3.88 0c-18.82,-1.24 -36.47,-20.49 -24.03,-44 -3.57,-5.33 -9.7,-11.04 -14.85,-15.14 -10.31,-8.23 -19.48,-18.89 -29.39,-27.61l-14.51 -14.5c-6.69,-6.69 -12.83,-11.83 -19.5,-18.5 -13.12,-13.12 -25.92,-24.78 -38.99,-38l-20.01 -19c-6.08,-6.07 -12.95,-13.69 -19.75,-18.25 -19.42,10.28 -39.63,0.49 -43,-14 -12.96,0 -23.91,2.57 -36.57,4.44 -12.15,1.79 -23,3.11 -35.13,4.86l-52.74 7.26c-5.51,0.8 -12.69,2.33 -17.56,2.44 0,12.25 -9.51,21.75 -18.84,25.16 -13.04,4.77 -21.35,0.08 -32.16,-7.16 -5.33,4.64 -12.53,7.81 -18.57,11.44l-92.23 55.76c-5.19,3.27 -31.51,20.28 -37.2,21.8 1.15,13.86 2.13,20.39 -5.74,29.26 -12.28,13.83 -37.59,13.65 -47.87,-4.64 -7.58,-13.47 -1.08,-21.28 -0.39,-29.62 -3.51,-0.93 -2.72,-1.31 -5.27,-3.73 -2.2,-2.1 -2.8,-2.09 -4.97,-4.03 -1.86,-1.65 -2.67,-2.83 -4.61,-4.39l-9.85 -8.15c-2.02,-1.7 -2.49,-2.54 -4.72,-4.27 -3.89,-3.03 -5.94,-5.23 -9.73,-8.28l-9.6 -8.4c-16.77,-15.97 -35.55,-29.65 -52.49,-45.5 -2.17,-2.03 -2.86,-2.11 -4.99,-4.01l-24.02 -20.98c-2.17,-2.02 -2.86,-2.13 -4.98,-4.02 -3.4,-3.03 -6.24,-5.31 -9.51,-8.5 -2.2,-2.14 -2.74,-2.18 -4.95,-4.05 -2.02,-1.7 -2.17,-2.25 -4.31,-3.69 -3.36,0.9 -5.69,3.18 -10.59,4.41 -10.08,2.56 -28.46,-1.35 -31.41,-12.41 -7.87,0.18 -28.36,9.32 -36.87,12.14 -11.85,3.92 -24.74,8.4 -36.27,12.72 -17.8,6.67 -36.47,11.85 -54.15,18.85 -5.66,2.24 -12.81,3.94 -17.71,6.29 0,11.58 -1.26,16.79 -7.22,22.78 -5.58,5.61 -9.72,8.8 -19.05,10.03 -16.11,2.11 -31.41,-12.37 -31.73,-26.81 -13.74,0 -58.09,-6.03 -71.29,-7.7 -12.11,-1.54 -23.91,-2.59 -35,-4 -6.35,-0.81 -31.68,-2.85 -34.71,-4.3 -2.33,4.41 -4.01,8.86 -7.73,12.28 -13.99,12.9 -29.02,7.93 -41.27,-0.28l-37.58 24.43c-22.5,13.71 -96.98,64.93 -111.42,72.57 0.11,5.01 1.71,9.24 0.91,15.91 -3.74,31.35 -57.91,35.15 -57.91,-6.91l-126 -37c-3.18,-0.88 -5.84,-1.58 -9.36,-2.64 -3.48,-1.05 -4.95,-2.05 -8.64,-2.36 -4.76,17.83 -37.2,20.12 -48,4 -6.14,3.25 -12.15,6.08 -18.67,9.34l-90.66 44.33c-6.32,3.16 -11.64,6.06 -18,9.01 -5.81,2.69 -12.7,6.93 -18.67,8.32 0,15.26 -1,28.44 -18.69,35.31 -3.15,1.22 -5.81,1.6 -8.85,1.69l-1.75 0 0 -12.34c0.67,0.08 1.36,0.12 2.06,0.12 9.22,0 16.7,-7.47 16.7,-16.7 0,-9.22 -7.48,-16.7 -16.7,-16.7 -0.7,0 -1.39,0.04 -2.06,0.12l0 -12.4 0 0c9.57,0.4 17.54,2.32 23.29,10.9 47.75,-25.26 98.25,-46.73 146,-72 0,-13.77 0.15,-17.27 6.38,-25.61 3.84,-5.14 12.05,-10.2 20.59,-10.45 9.53,-0.28 16.36,1.84 22.81,8.28 2.44,2.43 4.78,6.57 6.24,9.76 2.15,4.69 1.98,6.27 1.98,13.02 6.28,1.47 11.95,3.57 18.57,5.44 6.52,1.84 11.29,3.35 17.78,5.22l71.86 21.13c12.17,3.41 23.63,7.38 35.79,10.21 1.86,-6.94 12.35,-13.98 20.09,-14.91 13.21,-1.57 18.87,3.2 25.91,7.91l74.4 -48.6c6.56,-4.38 12.34,-7.89 18.8,-12.2 11.31,-7.54 46.09,-31.06 55.8,-36.2 -0.11,-4.86 -1.51,-8.48 -0.99,-14.98 1.69,-20.98 27.44,-32.98 47.01,-19.04 4.79,3.41 10.8,12.1 10.98,20.02 5.19,0.12 12.3,1.54 17.97,2.03 21.69,1.87 111.39,13.97 124.03,13.97 0.45,-5.35 5.36,-10.29 8.73,-13.26 12.75,-11.23 38.61,-6.44 42.27,7.26 7.71,-0.64 27.93,-9.34 36.61,-12.38 22.46,-7.86 51.48,-16.93 72.68,-25.32 9.07,-3.59 26.78,-10.22 35.71,-12.3 0,-8.07 -0.54,-9.75 2.3,-15.7 10.21,-21.31 40.81,-24.41 52.73,-1.33 5.45,10.54 2.39,17.63 -0.03,28.03l58.25 49.75c2.23,2.13 2.66,2.3 4.9,4.11 1.92,1.55 2.78,2.74 4.7,4.29l38.73 33.28c2.23,1.73 2.7,2.57 4.72,4.27 2.2,1.86 2.74,1.88 4.96,4.04 6.59,6.42 34.18,27.95 37.74,33.26 15.99,-10.71 25.11,-6.97 40,3l138.95 -84.05c2.49,-1.5 6.02,-4.14 9.05,-4.95 -0.91,-10.95 -2.57,-16.44 2.76,-25.24 3.2,-5.28 9.67,-10.97 16.07,-12.93 13.11,-4.04 34.95,3.51 36.17,18.17 17.1,-3.98 98.59,-13.6 124.57,-17.43 5.78,-0.85 12.28,-2.14 17.43,-2.57 0.38,-17.09 18.84,-31.57 38.4,-25.4 7.96,2.51 14.65,9.3 17.62,16.39 4,9.56 2.01,19.4 -2.02,27.01l55.25 52.75c15.9,16 32.1,32.14 48.99,47.01l27 26c14.67,12.92 20.48,26.04 28.45,23.06 16.28,-6.08 14.89,-1.77 26.31,-0.82 3.4,-5.07 6.57,-8.72 10.29,-13.71l50.57 -66.42c16.28,-21.75 44.06,-59.71 60.91,-80.1 3.77,-4.56 6.84,-8.92 10.37,-13.62 3.45,-4.6 6.59,-8.42 10.01,-13 3.55,-4.76 6.51,-8.91 10.27,-13.72 18.42,-23.58 4.11,-9.41 3.52,-30.39 -0.25,-8.88 1.08,-12.02 4.46,-17.64 5.92,-9.87 13.82,-12.61 24.31,-13.23l0 11.79c-2.01,0.07 -3.93,0.49 -5.71,1.2l0 -0.16c-0.57,0.31 -1.15,0.63 -1.71,0.96 -1.15,0.62 -2.22,1.37 -3.19,2.22 -3.49,2.87 -6.1,6.84 -6.1,12.82 0,8.59 5.36,13.02 11,16l0 -0.27c1.78,0.71 3.7,1.13 5.71,1.2l0 11.95c-7.11,-0.34 -6.11,-1.33 -12.71,-1.88 -9.33,13.93 -20.48,26.96 -30.57,40.43l-71.01 93c-12.36,15.82 -51.7,66.55 -60.42,79.57 1.29,5.55 5.21,9.31 5.9,15.1 0.91,7.59 -0.07,12.34 -2.53,17.27 -5.47,10.98 -14.37,16.01 -23.46,16.63zm-1405.91 -68c0,-21.95 34,-22.44 34,0 0,22.29 -34,22.29 -34,0zm792 -4c0,-23.51 34,-23.47 34,0 0,20.92 -34,20.92 -34,0zm-990 -54c0,-22.28 34,-22.28 34,0 0,22.26 -34,22.26 -34,0zm594 -48c0,-23.3 34,-21.72 34,-1 0,8.05 -6.29,17 -14,17l-6 0c-7.26,0 -14,-8.8 -14,-16zm594 -19c0,-20.56 34,-21.39 34,0 0,5.58 -1.65,9.32 -4.68,12.32 -11.83,11.68 -29.32,3.12 -29.32,-12.32zm-792 -4c0,-22.28 34,-22.28 34,0 0,22.26 -34,22.26 -34,0zm990 -22c0,-23.66 34,-22.2 34,-1 0,23.3 -34,21.73 -34,1zm-594 -24c0,-5.57 1.65,-9.32 4.69,-12.31 12.27,-12.11 29.31,-2.6 29.31,12.31 0,20.92 -34,20.92 -34,0z"/>
</svg>
